# xmcd CD database file
#
# Track frame offsets:
#	150
#	15990
#	30517
#	43492
#	58546
#	72178
#	88897
#	101600
#	120159
#	132333
#	146339
#	162498
#	184256
#	197441
#	217793
#	237761
#	250985
#	263186
#	281441
#	299136
#	311457
#	327690
#	344057
#
# Disc length: 4760 seconds
#
# Revision: 0
# Processed by: cddbd v1.5.2PL0 Copyright (c) Steve Scherf et al.
# Submitted via: CDex 1.51
#
DISCID=5d129617
DTITLE=Cazuza - Cazuza-Selecao 01
DYEAR=2007
DGENRE=Rock Brasil
TTITLE0=Bete Balanco-Cazuza
TTITLE1=Brasil-Cazuza
TTITLE2=Codinome Beija-Flor-Cazuza
TTITLE3=Completamente blue-Cazuza
TTITLE4=Eu queria ter uma bomba-Cazuza
TTITLE5=Exagerado-Cazuza
TTITLE6=Faz parte do meu show-Cazuza
TTITLE7=Ideologia-Cazuza
TTITLE8=Maior abandonado-Cazuza
TTITLE9=Minha flor meu bebe-Cazuza
TTITLE10=O nosso amor a gente inventa-Cazuza
TTITLE11=O tempo nao para-Cazuza
TTITLE12=Por quase um segundo-Cazuza
TTITLE13=Por que a gente eh assim-Cazuza
TTITLE14=Pro dia nascer feliz-Cazuza
TTITLE15=Quase um segundo-Cazuza
TTITLE16=Ritual-Cazuza
TTITLE17=So se for a dois-Cazuza
TTITLE18=Solidao que nada-Cazuza
TTITLE19=Todo amor que houver nessa vida-Cazuza
TTITLE20=Um trem para as estrelas-Cazuza
TTITLE21=Vida facil-Cazuza
TTITLE22=Voce se parece com todo mundo-Cazuza
EXTD=YEAR: 2007
EXTT0=
EXTT1=
EXTT2=
EXTT3=
EXTT4=
EXTT5=
EXTT6=
EXTT7=
EXTT8=
EXTT9=
EXTT10=
EXTT11=
EXTT12=
EXTT13=
EXTT14=
EXTT15=
EXTT16=
EXTT17=
EXTT18=
EXTT19=
EXTT20=
EXTT21=
EXTT22=
PLAYORDER=
